<svg width="35" height="34" viewBox="0 0 35 34" fill="none" xmlns="http://www.w3.org/2000/svg">
<path fill-rule="evenodd" clip-rule="evenodd" d="M3.75 8.5C3.75 7.94772 4.19772 7.5 4.75 7.5H30.25C30.8023 7.5 31.25 7.94772 31.25 8.5C31.25 9.05228 30.8023 9.5 30.25 9.5H4.75C4.19772 9.5 3.75 9.05228 3.75 8.5ZM3.75 17C3.75 16.4477 4.19772 16 4.75 16H30.25C30.8023 16 31.25 16.4477 31.25 17C31.25 17.5523 30.8023 18 30.25 18H4.75C4.19772 18 3.75 17.5523 3.75 17ZM4.75 24.5C4.19772 24.5 3.75 24.9477 3.75 25.5C3.75 26.0523 4.19772 26.5 4.75 26.5H30.25C30.8023 26.5 31.25 26.0523 31.25 25.5C31.25 24.9477 30.8023 24.5 30.25 24.5H4.75Z" fill="white"/>
</svg>
