<svg width="37" height="35" viewBox="0 0 37 35" fill="none" xmlns="http://www.w3.org/2000/svg">
<rect width="37" height="35" rx="17.5" fill="white"/>
<path d="M12.9928 9.55802C12.9928 10.9248 11.8938 12.0328 10.5381 12.0328C9.1824 12.0328 8.08337 10.9248 8.08337 9.55802C8.08337 8.19127 9.1824 7.08331 10.5381 7.08331C11.8939 7.08331 12.9928 8.19127 12.9928 9.55802ZM12.6337 13.789H8.48245V27.2005H12.6337V13.789ZM19.2695 13.789H15.288V27.2005H19.2695C19.2695 27.2005 19.2695 22.226 19.2695 20.1604C19.2695 18.2745 20.1376 17.1519 21.7991 17.1519C23.3259 17.1519 24.0593 18.2296 24.0593 20.1604C24.0593 22.0913 24.0593 27.2005 24.0593 27.2005H28.1904C28.1904 27.2005 28.1904 22.3009 28.1904 18.7086C28.1904 15.1162 26.1548 13.3799 23.3108 13.3799C20.4668 13.3799 19.2694 15.5952 19.2694 15.5952V13.789H19.2695Z" fill="#111111"/>
</svg>
