<svg width="63" height="20" viewBox="0 0 63 20" fill="none" xmlns="http://www.w3.org/2000/svg">
<path d="M22.8538 19.1021L30.9497 0.883637H34.5249L26.4289 19.1021H22.8538Z" fill="white"/>
<path d="M31.3171 19.1021L39.4131 0.883637H42.9883L34.8923 19.1021H31.3171Z" fill="white"/>
<path d="M26.2279 0.88359L24.7517 4.04685L2.60884 8.26459L19.1638 16.0673L17.7925 19.1164L0.5 10.3727L0.499999 5.73393L26.2279 0.88359Z" fill="white"/>
<path d="M20.1122 13.9585L17.7925 19.1164L15.051 17.5169L18.8469 9.52985L22.432 8.89719L20.1122 13.9585Z" fill="white"/>
<path d="M39.3027 19.0196L48.2228 0.883588L53.58 0.883588L62.5 19.0196L58.915 19.0196L50.9014 2.57066L42.8878 19.0196L39.3027 19.0196Z" fill="white"/>
</svg>
