<svg width="95" height="28" viewBox="0 0 95 28" fill="none" xmlns="http://www.w3.org/2000/svg">
<path d="M34.2517 27.9467L46.6568 0.0314026H52.1349L39.7298 27.9467H34.2517Z" fill="white"/>
<path d="M47.2198 27.9467L59.6249 0.0314026H65.103L52.6978 27.9467H47.2198Z" fill="white"/>
<path d="M39.4218 0.0313009L37.1599 4.87824L3.23129 11.3409L28.5978 23.2967L26.4966 27.9687L-5.85631e-07 14.571L-8.9632e-07 7.46328L39.4218 0.0313009Z" fill="white"/>
<path d="M30.051 20.0654L26.4966 27.9687L22.2959 25.5179L28.1122 13.2796L33.6054 12.3102L30.051 20.0654Z" fill="white"/>
<path d="M59.4558 27.8204L73.1236 0.0313171L81.3322 0.0313167L95 27.8204L89.5068 27.8204L77.2279 2.61635L64.949 27.8204L59.4558 27.8204Z" fill="white"/>
</svg>
